<?xml version="1.0" encoding="UTF-8"?>
<svg width="24px" height="24px" viewBox="0 0 24 24" version="1.1" xmlns="http://www.w3.org/2000/svg" xmlns:xlink="http://www.w3.org/1999/xlink">
    <!-- Generator: Sketch 54.1 (76490) - https://sketchapp.com -->
    <title>ZF_GRA_CALENDAR-1024px-CYAN_2018-04-25</title>
    <desc>Created with Sketch.</desc>
    <g id="IOO" stroke="none" stroke-width="1" fill="none" fill-rule="evenodd">
        <g id="08_01_SHOPPING-CART" transform="translate(-1022.000000, -485.000000)" fill="#00A8D8">
            <g id="Group-3" transform="translate(394.000000, 460.000000)">
                <g id="Group-36" transform="translate(590.000000, 0.000000)">
                    <g id="ZF_GRA_CALENDAR-1024px-CYAN_2018-04-25" transform="translate(38.000000, 25.000000)">
                        <path d="M18.7270172,3.53072464 C19.0119803,3.53072464 19.2429877,3.30362319 19.2429877,3.02347826 L19.2429877,0.511536232 C19.2429877,0.231391304 19.0119803,0.00428985507 18.7270172,0.00428985507 C18.4420541,0.00428985507 18.2110467,0.231391304 18.2110467,0.511536232 L18.2110467,1.29095652 L13.5405111,1.29095652 C13.2555479,1.29095652 13.0245405,1.51805797 13.0245405,1.7982029 C13.0245405,2.07834783 13.2555479,2.30544928 13.5405111,2.30544928 L18.2110467,2.30544928 L18.2110467,3.02347826 C18.2110467,3.30362319 18.4420541,3.53072464 18.7270172,3.53072464" id="Fill-1"></path>
                        <path d="M11.8871646,3.53072464 C12.1721278,3.53072464 12.4031351,3.30362319 12.4031351,3.02347826 L12.4031351,0.511536232 C12.4031351,0.231391304 12.1721278,0.00428985507 11.8871646,0.00428985507 C11.6022015,0.00428985507 11.3711941,0.231391304 11.3711941,0.511536232 L11.3711941,1.29095652 L6.51865356,1.29095652 C6.23369042,1.29095652 6.00268305,1.51805797 6.00268305,1.7982029 C6.00268305,2.07834783 6.23369042,2.30544928 6.51865356,2.30544928 L11.3711941,2.30544928 L11.3711941,3.02347826 C11.3711941,3.30362319 11.6022015,3.53072464 11.8871646,3.53072464" id="Fill-2"></path>
                        <path d="M23.981543,22.1444928 L23.981543,3.11881159 C23.981543,2.11092754 23.1474693,1.29095652 22.1222506,1.29095652 L20.3558329,1.29095652 C20.0708698,1.29095652 19.8398624,1.51805797 19.8398624,1.7982029 C19.8398624,2.07834783 20.0708698,2.30544928 20.3558329,2.30544928 L22.1222506,2.30544928 C22.578457,2.30544928 22.949602,2.67031884 22.949602,3.11881159 L22.949602,22.1444928 C22.949602,22.5929855 22.578457,22.9578551 22.1222506,22.9578551 L1.87774939,22.9578551 C1.421543,22.9578551 1.05039803,22.5929855 1.05039803,22.1444928 L1.05039803,3.11881159 C1.05039803,2.67031884 1.421543,2.30544928 1.87774939,2.30544928 L4.36298771,2.30544928 L4.36298771,3.02347826 C4.36298771,3.30362319 4.59399509,3.53072464 4.87895823,3.53072464 C5.16392138,3.53072464 5.39492875,3.30362319 5.39492875,3.02347826 L5.39492875,0.511536232 C5.39492875,0.231391304 5.16392138,0.00428985507 4.87895823,0.00428985507 C4.59399509,0.00428985507 4.36298771,0.231391304 4.36298771,0.511536232 L4.36298771,1.29095652 L1.87774939,1.29095652 C0.852530713,1.29095652 0.0184570025,2.11092754 0.0184570025,3.11881159 L0.0184570025,22.1444928 C0.0184570025,23.1523768 0.852530713,23.9723478 1.87774939,23.9723478 L22.1222506,23.9723478 C23.1474693,23.9723478 23.981543,23.1523768 23.981543,22.1444928" id="Fill-3"></path>
                        <path d="M16.6461523,14.1836232 L19.7443636,14.1836232 L19.7443636,11.0242029 L16.6461523,11.0242029 L16.6461523,14.1836232 Z M12.5159705,18.3575362 L15.6142113,18.3575362 L15.6142113,15.1981159 L12.5159705,15.1981159 L12.5159705,18.3575362 Z M4.25563636,10.0097101 L7.35384767,10.0097101 L7.35384767,6.85028986 L4.25563636,6.85028986 L4.25563636,10.0097101 Z M8.3857887,10.0097101 L11.4840295,10.0097101 L11.4840295,6.85028986 L8.3857887,6.85028986 L8.3857887,10.0097101 Z M12.5159705,14.1836232 L15.6142113,14.1836232 L15.6142113,11.0242029 L12.5159705,11.0242029 L12.5159705,14.1836232 Z M8.3857887,14.1836232 L11.4840295,14.1836232 L11.4840295,11.0242029 L8.3857887,11.0242029 L8.3857887,14.1836232 Z M8.3857887,18.3575362 L11.4840295,18.3575362 L11.4840295,15.1981159 L8.3857887,15.1981159 L8.3857887,18.3575362 Z M4.25563636,18.3575362 L7.35384767,18.3575362 L7.35384767,15.1981159 L4.25563636,15.1981159 L4.25563636,18.3575362 Z M4.25563636,14.1836232 L7.35384767,14.1836232 L7.35384767,11.0242029 L4.25563636,11.0242029 L4.25563636,14.1836232 Z M12.5159705,10.0097101 L15.6142113,10.0097101 L15.6142113,6.85028986 L12.5159705,6.85028986 L12.5159705,10.0097101 Z M16.6461523,10.0097101 L19.7443636,10.0097101 L19.7443636,6.85028986 L16.6461523,6.85028986 L16.6461523,10.0097101 Z M3.22369533,6.34304348 C3.22369533,6.35742029 3.22469779,6.37153623 3.22587715,6.38565217 C3.22469779,6.39971014 3.22369533,6.41382609 3.22369533,6.4282029 L3.22369533,18.6924638 C3.22369533,18.7218841 3.22676167,18.7505797 3.23165602,18.7786087 C3.22676167,18.8066667 3.22369533,18.8353333 3.22369533,18.8647826 C3.22369533,19.1449275 3.4547027,19.372029 3.73966585,19.372029 L16.1301818,19.372029 C16.415145,19.372029 16.6461523,19.1449275 16.6461523,18.8647826 C16.6461523,18.8353333 16.6430565,18.8066667 16.6381622,18.7786087 C16.6430565,18.7505797 16.6461523,18.7218841 16.6461523,18.6924638 L16.6461523,15.1981159 L20.2603342,15.1981159 C20.5452973,15.1981159 20.7763047,14.9710145 20.7763047,14.6908696 C20.7763047,14.6703478 20.7747125,14.6502319 20.7722948,14.6303188 C20.7747125,14.6104638 20.7763047,14.5903188 20.7763047,14.5697971 L20.7763047,6.4282029 C20.7763047,6.41382609 20.7753022,6.39971014 20.7741229,6.38565217 C20.7753022,6.37153623 20.7763047,6.35742029 20.7763047,6.34304348 C20.7763047,6.06289855 20.5452973,5.8357971 20.2603342,5.8357971 L3.73966585,5.8357971 C3.4547027,5.8357971 3.22369533,6.06289855 3.22369533,6.34304348 L3.22369533,6.34304348 Z" id="Fill-4"></path>
                    </g>
                </g>
            </g>
        </g>
    </g>
</svg>