<?xml version="1.0" encoding="UTF-8"?>
<svg width="22px" height="19px" viewBox="0 0 22 19" version="1.1" xmlns="http://www.w3.org/2000/svg" xmlns:xlink="http://www.w3.org/1999/xlink">
    <!-- Generator: Sketch 53.1 (72631) - https://sketchapp.com -->
    <title>ZF_GRA_SHOP-1024px-WHITE_2018-04-25</title>
    <desc>Created with Sketch.</desc>
    <g id="IOO" stroke="none" stroke-width="1" fill="none" fill-rule="evenodd">
        <g id="02_00_DASHBOARD" transform="translate(-1163.000000, -251.000000)" fill="#666666">
            <g id="Dashboard" transform="translate(-1.000000, 0.000000)">
                <g id="Group-34" transform="translate(1145.000000, 242.000000)">
                    <g id="Group-3-Copy-2">
                        <g id="Group-24" transform="translate(20.000000, 10.000000)">
                            <g id="ZF_GRA_SHOP-1024px-WHITE_2018-04-25">
                                <path d="M4.45730953,13.0069478 C4.48792491,13.2162847 4.6662686,13.3714286 4.87631676,13.3714286 L17.7478956,13.3714286 C17.9818068,13.3714286 18.1714286,13.1803998 18.1714286,12.9448074 C18.1714286,12.7091663 17.9818068,12.5181863 17.7478956,12.5181863 L5.24205565,12.5181863 L3.46474183,0.364431984 C3.43410224,0.155070697 3.25578276,0 3.0457346,0 L0.423532984,0 C0.189621768,0 0,0.19098001 0,0.42662116 C0,0.662213554 0.189621768,0.853242321 0.423532984,0.853242321 L2.67999572,0.853242321 L4.45730953,13.0069478" id="Fill-1" stroke="#666666" stroke-width="0.5"></path>
                                <path d="M6.59242216,10.4682748 C6.35768286,10.4682748 6.1673898,10.6576846 6.1673898,10.8912803 C6.1673898,11.1249243 6.35768286,11.3142857 6.59242216,11.3142857 L18.145093,11.3142857 C18.3535046,11.3142857 18.5311924,11.1639133 18.5646364,10.9591545 L19.9944938,2.20516541 C20.0144824,2.08271138 19.9794841,1.95774348 19.8987036,1.86323198 C19.8179475,1.76874464 19.6995942,1.71428571 19.5749504,1.71428571 L5.22503235,1.71428571 C4.99029306,1.71428571 4.8,1.90369547 4.8,2.13729117 C4.8,2.37093521 4.99029306,2.56029662 5.22503235,2.56029662 L19.0752581,2.56029662 L17.7835726,10.4682748 L6.59242216,10.4682748" id="Fill-2" stroke="#666666" stroke-width="0.5"></path>
                                <path d="M5.6,16.0857024 C5.6,16.6538023 6.06050719,17.1142857 6.62855955,17.1142857 C7.19663567,17.1142857 7.65714286,16.6538023 7.65714286,16.0857024 C7.65714286,15.5176738 7.19663567,15.0571429 6.62855955,15.0571429 C6.06050719,15.0571429 5.6,15.5176738 5.6,16.0857024" id="Fill-3"></path>
                                <path d="M14.7428571,16.0857024 C14.7428571,16.6538023 15.2033643,17.1142857 15.7714405,17.1142857 C16.3394928,17.1142857 16.8,16.6538023 16.8,16.0857024 C16.8,15.5176738 16.3394928,15.0571429 15.7714405,15.0571429 C15.2033643,15.0571429 14.7428571,15.5176738 14.7428571,16.0857024" id="Fill-4"></path>
                            </g>
                        </g>
                    </g>
                </g>
            </g>
        </g>
    </g>
</svg>