<?xml version="1.0" encoding="UTF-8"?>
<svg width="16px" height="15px" viewBox="0 0 16 15" version="1.1" xmlns="http://www.w3.org/2000/svg" xmlns:xlink="http://www.w3.org/1999/xlink">
    <!-- Generator: Sketch 53.1 (72631) - https://sketchapp.com -->
    <title>ZF_GRA_PRINTER-1024px-CYAN_2018-04-25</title>
    <desc>Created with Sketch.</desc>
    <g id="IOO" stroke="none" stroke-width="1" fill="none" fill-rule="evenodd">
        <g id="02_00_DASHBOARD" transform="translate(-1290.000000, -1012.000000)" fill="#00A8D8">
            <g id="Dashboard" transform="translate(-1.000000, 0.000000)">
                <g id="MY-LAST-ORDERS" transform="translate(395.000000, 911.000000)">
                    <g id="Group-22" transform="translate(0.000000, 52.000000)">
                        <g id="Group-19" transform="translate(1.000000, 46.000000)">
                            <g id="Group-15" transform="translate(814.000000, 0.000000)">
                                <g id="ZF_GRA_PRINTER-1024px-CYAN_2018-04-25" transform="translate(81.000000, 3.000000)">
                                    <path d="M1.37431189,15 L14.1256667,15 C14.883473,15 15.5,14.3861767 15.5,13.6316674 L15.5,8.36389121 C15.5,7.60940324 14.883473,6.99555864 14.1256667,6.99555864 L12.6846383,6.99555864 L12.6846383,4.51623095 C12.6846383,4.30992982 12.516668,4.14269035 12.3094654,4.14269035 C12.1022628,4.14269035 11.9342925,4.30992982 11.9342925,4.51623095 L11.9342925,7.19415416 C11.9342925,7.49659398 12.1814136,7.74263983 12.485175,7.74263983 L14.1256667,7.74263983 C14.4697324,7.74263983 14.7496542,8.02134381 14.7496542,8.36389121 L14.7496542,13.6316674 C14.7496542,13.9742148 14.4697324,14.2529188 14.1256667,14.2529188 L1.37431189,14.2529188 C1.03026763,14.2529188 0.750345781,13.9742148 0.750345781,13.6316674 L0.750345781,8.36389121 C0.750345781,8.02134381 1.03026763,7.74263983 1.37431189,7.74263983 L2.74097026,7.74263983 C3.12499723,7.74263983 3.43741978,7.43157657 3.43741978,7.04924176 L3.43741978,4.4735406 C3.43741978,4.26723946 3.26944952,4.1 3.06224689,4.1 C2.85504426,4.1 2.687074,4.26723946 2.687074,4.4735406 L2.687074,6.99555864 L1.37431189,6.99555864 C0.616526971,6.99555864 0,7.60940324 0,8.36389121 L0,13.6316674 C0,14.3861767 0.616526971,15 1.37431189,15" id="Fill-1"></path>
                                    <path d="M5.67511722,2.3 L9.72488278,2.3 C9.93205466,2.3 10.1,2.1433 10.1,1.95 C10.1,1.7567 9.93205466,1.6 9.72488278,1.6 L5.67511722,1.6 C5.46794534,1.6 5.3,1.7567 5.3,1.95 C5.3,2.1433 5.46794534,2.3 5.67511722,2.3" id="Fill-2"></path>
                                    <path d="M5.67511722,3.6 L9.72488278,3.6 C9.93205466,3.6 10.1,3.4433 10.1,3.25 C10.1,3.0567 9.93205466,2.9 9.72488278,2.9 L5.67511722,2.9 C5.46794534,2.9 5.3,3.0567 5.3,3.25 C5.3,3.4433 5.46794534,3.6 5.67511722,3.6" id="Fill-3"></path>
                                    <path d="M5.67511722,4.9 L9.72488278,4.9 C9.93205466,4.9 10.1,4.7433 10.1,4.55 C10.1,4.3567 9.93205466,4.2 9.72488278,4.2 L5.67511722,4.2 C5.46794534,4.2 5.3,4.3567 5.3,4.55 C5.3,4.7433 5.46794534,4.9 5.67511722,4.9" id="Fill-4"></path>
                                    <path d="M5.67511722,6.3 L9.72488278,6.3 C9.93205466,6.3 10.1,6.1433 10.1,5.95 C10.1,5.7567 9.93205466,5.6 9.72488278,5.6 L5.67511722,5.6 C5.46794534,5.6 5.3,5.7567 5.3,5.95 C5.3,6.1433 5.46794534,6.3 5.67511722,6.3" id="Fill-5"></path>
                                    <path d="M5.67511722,7.6 L9.72488278,7.6 C9.93205466,7.6 10.1,7.4433 10.1,7.25 C10.1,7.0567 9.93205466,6.9 9.72488278,6.9 L5.67511722,6.9 C5.46794534,6.9 5.3,7.0567 5.3,7.25 C5.3,7.4433 5.46794534,7.6 5.67511722,7.6" id="Fill-6"></path>
                                    <path d="M10.6180128,0 L4.68200855,0 C4.25081197,0 3.9,0.35337535 3.9,0.787722687 L3.9,7.42333606 C3.9,7.63136217 4.06741453,7.8 4.27393162,7.8 C4.48044872,7.8 4.64786325,7.63136217 4.64786325,7.42333606 L4.64786325,0.787722687 C4.64786325,0.768760348 4.66318376,0.753327888 4.68200855,0.753327888 L10.6180128,0.753327888 C10.6368376,0.753327888 10.6521368,0.768760348 10.6521368,0.787722687 L10.6521368,7.42333606 C10.6521368,7.63136217 10.8195513,7.8 11.0260684,7.8 C11.2325855,7.8 11.4,7.63136217 11.4,7.42333606 L11.4,0.787722687 C11.4,0.35337535 11.0492094,0 10.6180128,0" id="Fill-7"></path>
                                    <path d="M3.4,9.65 C3.4,9.8433 3.5674438,10 3.77399701,10 L12.926003,10 C13.1325562,10 13.3,9.8433 13.3,9.65 C13.3,9.4567 13.1325562,9.3 12.926003,9.3 L3.77399701,9.3 C3.5674438,9.3 3.4,9.4567 3.4,9.65" id="Fill-8"></path>
                                    <path d="M1.8,9.7 C1.8,9.97614561 2.02385439,10.2 2.29997778,10.2 C2.57612338,10.2 2.8,9.97614561 2.8,9.7 C2.8,9.42385439 2.57612338,9.2 2.29997778,9.2 C2.02385439,9.2 1.8,9.42385439 1.8,9.7" id="Fill-9"></path>
                                </g>
                            </g>
                        </g>
                    </g>
                </g>
            </g>
        </g>
    </g>
</svg>